<svg xmlns="http://www.w3.org/2000/svg" width="13" height="13.922" viewBox="0 0 13 13.922" fill="none">
  <path d="M 5.94 0.082 L 1.44 1.393 C 0.59 1.643 0 2.423 0 3.313 L 0 7.622 C 0 10.493 3.22 13.922 6.5 13.922 C 9.78 13.922 13 10.493 13 7.622 L 13 3.313 C 13 2.423 12.41 1.643 11.56 1.393 L 7.06 0.082 C 6.7 -0.028 6.31 -0.028 5.94 0.082 Z M 11.56 7.622 C 11.56 9.653 9.03 12.523 6.5 12.523 L 6.5 6.923 L 1.44 6.923 L 1.44 2.862 L 6.5 1.393 L 6.5 6.923 L 11.56 6.923 L 11.56 7.622 Z" fill="currentColor" fill-rule="nonzero"></path>
</svg>