<svg xmlns="http://www.w3.org/2000/svg" width="13" height="11.737" viewBox="0 0 13 11.737" fill="none">
  <path d="M 13 0.724 C 13 0.325 12.675 0 12.276 0 C 11.876 0 11.551 0.325 11.551 0.724 L 11.551 9.574 C 11.551 9.973 11.226 10.298 10.827 10.298 C 10.428 10.298 10.103 9.973 10.103 9.574 L 10.103 2.164 C 10.103 0.966 9.137 0 7.939 0 C 6.741 0 5.776 0.966 5.776 2.164 L 5.776 9.574 C 5.776 9.973 5.451 10.298 5.051 10.298 C 4.652 10.298 4.327 9.973 4.327 9.574 L 4.327 2.164 C 4.327 0.966 3.361 0 2.164 0 C 0.966 0 0 0.966 0 2.164 L 0 11.013 C 0 11.412 0.325 11.737 0.724 11.737 C 1.124 11.737 1.449 11.412 1.449 11.013 L 1.449 2.164 C 1.449 1.764 1.774 1.439 2.173 1.439 C 2.572 1.439 2.897 1.764 2.897 2.164 L 2.897 9.574 C 2.897 10.771 3.863 11.737 5.061 11.737 C 6.259 11.737 7.224 10.771 7.224 9.574 L 7.224 2.164 C 7.224 1.764 7.549 1.439 7.949 1.439 C 8.348 1.439 8.673 1.764 8.673 2.164 L 8.673 9.574 C 8.673 10.771 9.639 11.737 10.836 11.737 C 12.034 11.737 13 10.771 13 9.574 L 13 0.724 Z" fill="currentColor" fill-rule="nonzero"/>
</svg>
